<mxfile host="65bd71144e">
    <diagram id="BOXzS43Vjxv3NzJxjPuH" name="Page-1">
        <mxGraphModel dx="629" dy="654" grid="1" gridSize="10" guides="1" tooltips="1" connect="1" arrows="1" fold="1" page="1" pageScale="1" pageWidth="850" pageHeight="1100" math="0" shadow="0">
            <root>
                <mxCell id="0"/>
                <mxCell id="1" parent="0"/>
                <mxCell id="2" value="" style="whiteSpace=wrap;html=1;" vertex="1" parent="1">
                    <mxGeometry x="210" y="310" width="360" height="240" as="geometry"/>
                </mxCell>
                <mxCell id="3" value="Parser" style="text;html=1;align=center;verticalAlign=middle;resizable=0;points=[];autosize=1;strokeColor=none;fillColor=none;" vertex="1" parent="1">
                    <mxGeometry x="220" y="320" width="60" height="30" as="geometry"/>
                </mxCell>
                <mxCell id="_rCFM5y9LcALufR9mGDG-15" style="edgeStyle=none;html=1;" edge="1" parent="1" source="6" target="_rCFM5y9LcALufR9mGDG-12">
                    <mxGeometry relative="1" as="geometry"/>
                </mxCell>
                <mxCell id="6" value="Convertir a Markdown + Descripción de Imágenes" style="rounded=1;whiteSpace=wrap;html=1;" vertex="1" parent="1">
                    <mxGeometry x="250" y="440" width="120" height="60" as="geometry"/>
                </mxCell>
                <mxCell id="_rCFM5y9LcALufR9mGDG-6" value="HTML" style="shape=note;whiteSpace=wrap;html=1;backgroundOutline=1;darkOpacity=0.05;size=17;" vertex="1" parent="1">
                    <mxGeometry x="150" y="400" width="40" height="50" as="geometry"/>
                </mxCell>
                <mxCell id="_rCFM5y9LcALufR9mGDG-7" value="PDF" style="shape=note;whiteSpace=wrap;html=1;backgroundOutline=1;darkOpacity=0.05;size=17;" vertex="1" parent="1">
                    <mxGeometry x="150" y="490" width="40" height="50" as="geometry"/>
                </mxCell>
                <mxCell id="_rCFM5y9LcALufR9mGDG-8" value="" style="edgeStyle=none;orthogonalLoop=1;jettySize=auto;html=1;" edge="1" parent="1">
                    <mxGeometry width="100" relative="1" as="geometry">
                        <mxPoint x="150" y="480" as="sourcePoint"/>
                        <mxPoint x="250" y="480" as="targetPoint"/>
                        <Array as="points"/>
                    </mxGeometry>
                </mxCell>
                <mxCell id="_rCFM5y9LcALufR9mGDG-9" value="" style="edgeStyle=none;orthogonalLoop=1;jettySize=auto;html=1;" edge="1" parent="1">
                    <mxGeometry width="100" relative="1" as="geometry">
                        <mxPoint x="149" y="459" as="sourcePoint"/>
                        <mxPoint x="249" y="459" as="targetPoint"/>
                        <Array as="points"/>
                    </mxGeometry>
                </mxCell>
                <mxCell id="_rCFM5y9LcALufR9mGDG-10" value="Hacer una comprobación" style="rounded=1;whiteSpace=wrap;html=1;" vertex="1" parent="1">
                    <mxGeometry x="30" y="470" width="120" height="60" as="geometry"/>
                </mxCell>
                <mxCell id="_rCFM5y9LcALufR9mGDG-17" style="edgeStyle=none;html=1;" edge="1" parent="1" source="_rCFM5y9LcALufR9mGDG-12">
                    <mxGeometry relative="1" as="geometry">
                        <mxPoint x="630" y="390" as="targetPoint"/>
                    </mxGeometry>
                </mxCell>
                <mxCell id="_rCFM5y9LcALufR9mGDG-12" value="Encapsular todo" style="rounded=1;whiteSpace=wrap;html=1;" vertex="1" parent="1">
                    <mxGeometry x="410" y="360" width="120" height="60" as="geometry"/>
                </mxCell>
                <mxCell id="_rCFM5y9LcALufR9mGDG-13" value="" style="edgeStyle=none;orthogonalLoop=1;jettySize=auto;html=1;" edge="1" parent="1">
                    <mxGeometry width="100" relative="1" as="geometry">
                        <mxPoint x="120" y="389" as="sourcePoint"/>
                        <mxPoint x="410" y="389.6" as="targetPoint"/>
                        <Array as="points"/>
                    </mxGeometry>
                </mxCell>
                <mxCell id="_rCFM5y9LcALufR9mGDG-14" value="URL, Fecha" style="shape=note;whiteSpace=wrap;html=1;backgroundOutline=1;darkOpacity=0.05;size=17;" vertex="1" parent="1">
                    <mxGeometry x="130" y="330" width="40" height="50" as="geometry"/>
                </mxCell>
                <mxCell id="_rCFM5y9LcALufR9mGDG-16" value="Artículo (.md)" style="shape=note;whiteSpace=wrap;html=1;backgroundOutline=1;darkOpacity=0.05;size=17;" vertex="1" parent="1">
                    <mxGeometry x="580" y="330" width="40" height="50" as="geometry"/>
                </mxCell>
            </root>
        </mxGraphModel>
    </diagram>
</mxfile>